<svg id="Calque_2" data-name="Calque 2" xmlns="http://www.w3.org/2000/svg" viewBox="0 0 703.05 342.97"><defs><style>.cls-1,.cls-4,.cls-5{fill:#fff;}.cls-2,.cls-3{fill:none;stroke-miterlimit:10;}.cls-2,.cls-3,.cls-4{stroke:#fff;}.cls-2{stroke-linecap:round;}.cls-4{font-size:48.95px;font-family:NordicAlternative, Nordic Alternative;}.cls-5{font-size:18.82px;font-family:Poppins-Black, Poppins;font-weight:800;}</style></defs><path class="cls-1" d="M162.32,234l10.34-4a85.18,85.18,0,0,0,3.39,10.15c78.52,25.2,91.22,10.41,91.22,10.41,1.14,93.69-41.18,113.89-43.11,114.14-1.52-11.34-9.45-18.65-11-19.23.79-3.52-2.1-9.33-3.09-10.75,6.1-27-14.5-54.18-21.75-62.6a21.66,21.66,0,0,0-6.05-5c-5.95-3.25-10-1.9-12.51.16A10.74,10.74,0,0,0,166,274c-3.58,23.46-16.32,50.19-16.32,50.19l-3.25,6.29a5.57,5.57,0,0,1-.56.43c-4.07,2.81-9.69.07-10.42-4.82l-.66-4.43,1.44-41.85s.62-7,1.6-11.51a13.56,13.56,0,0,0,.14-5c-4.15-26.14-23.63-4-23.63-4l-12.56-1c.79-21.54,12.25-32.53,13.66-33.4,15.34,14,34.37,7.18,34.37,7.18s4.26-4.07,7.18-6.91Z" transform="translate(-93.43 -140.58)"/><path class="cls-2" d="M174.05,265.93,144.74,394.48s-19.88,4.57-21.8.06c0,0,8.07-20.32,7-65.57-3.61-33.73,5.75-72.11,5.75-72.11" transform="translate(-93.43 -140.58)"/><path class="cls-3" d="M149.28,231.67s6.35-5.77,8-7.59c1.75.32,14.82,4.54,14.82,4.54a91.58,91.58,0,0,0,4.32,11.13" transform="translate(-93.43 -140.58)"/><path d="M185.49,249.18c37.57,24.6,75.41,12.95,75.41,12.95s-9.23,68.62-31.3,91.32a26.12,26.12,0,0,0-6.57-14.8c1-4.1-1.57-6.85-3.37-8.66.6-2-5.66-53-37.5-69.86a.83.83,0,0,1-.47-.93l2.34-9.46A1,1,0,0,1,185.49,249.18Z" transform="translate(-93.43 -140.58)"/><path class="cls-1" d="M724.14,234.89l-10.34-4A85.22,85.22,0,0,1,710.41,241c-78.52,25.21-91.22,10.42-91.22,10.42-1.14,93.69,41.18,113.89,43.11,114.14,1.52-11.34,9.45-18.66,11-19.23-.8-3.53,2.09-9.33,3.08-10.76-6.1-27,14.5-54.17,21.75-62.59a21.87,21.87,0,0,1,6.05-5c5.95-3.24,10-1.89,12.51.17a10.72,10.72,0,0,1,3.76,6.73c3.58,23.47,16.32,50.2,16.32,50.2l3.25,6.29c.18.15.37.3.56.43,4.07,2.81,9.69.06,10.42-4.82l.66-4.43-1.44-41.86a115.77,115.77,0,0,0-1.6-11.5,13.56,13.56,0,0,1-.14-5c4.15-26.14,23.63-4,23.63-4l12.56-1c-.79-21.55-12.25-32.53-13.66-33.41-15.34,14-34.37,7.19-34.37,7.19s-4.26-4.07-7.18-6.92Z" transform="translate(-93.43 -140.58)"/><path class="cls-2" d="M713.94,267.11l27.78,128.23s19.88,4.57,21.8.07c0,0-8.07-20.32-7-65.57,3.61-33.73-5.77-72-5.77-72" transform="translate(-93.43 -140.58)"/><path class="cls-3" d="M737.5,232.52s-6.66-5.76-8.36-7.57c-1.75.32-14.82,4.54-14.82,4.54s-1.51,6.51-4.65,10.59" transform="translate(-93.43 -140.58)"/><path d="M701,250c-37.57,24.61-75.41,13-75.41,13s9.23,68.63,31.3,91.33a26.12,26.12,0,0,1,6.57-14.8c-1-4.1,1.57-6.85,3.37-8.67-.6-2,5.66-53,37.5-69.86a.82.82,0,0,0,.47-.92l-2.34-9.46A1,1,0,0,0,701,250Z" transform="translate(-93.43 -140.58)"/><text class="cls-4" transform="translate(202.89 146.61)">Bien jouE !!</text><text class="cls-5" transform="translate(127.46 255.95)">Tu as prouvé que tu es le maître de ton destin.<tspan x="66.27" y="22.58">Tu es digne d’être un God of War</tspan></text><path class="cls-1" d="M790.35,480.35,97,483.54H93.43l0-3.55,3-333c-.52-1.44,693-5.86,693.5-6.37l6.49,0c-2.51,100.25-4.35,241.17-6.14,339.77Zm-.7-.7c-.67-97.12-4.58-234.49-6-332.65l6.36,6.36c0-.3-695-5.06-692.5-6.36l3,333L97,476.46l692.65,3.19Z" transform="translate(-93.43 -140.58)"/></svg>