<svg id="Calque_2" data-name="Calque 2" xmlns="http://www.w3.org/2000/svg" viewBox="0 0 527.74 344.32"><defs><style>.cls-1,.cls-3,.cls-7{fill:#fff;}.cls-2{stroke:#000;stroke-width:0.5px;}.cls-2,.cls-3,.cls-9{stroke-miterlimit:10;}.cls-3{font-size:31.62px;font-family:NordicAlternative, Nordic Alternative;}.cls-3,.cls-9{stroke:#fff;}.cls-4{letter-spacing:-0.1em;}.cls-5{letter-spacing:0em;}.cls-6{letter-spacing:-0.12em;}.cls-7{font-size:15.91px;font-family:Poppins-SemiBold, Poppins;font-weight:600;}.cls-8{fill:#1d1d1b;}.cls-9{fill:none;}</style></defs><path class="cls-1" d="M97.46,216.13c13.73,5.93,29.75,5.85,29.75,5.85s9.15-1.52,14.57-1.09c1.33,1.68,20.86,22.44,37.86,9.78C184.64,228,196,219,196,219s5.5-2.61,6.11-1.94c-.67.44-7.33,9.33,3.39,9.88,1.56-.38,8.5-3.16,8.5-3.16s3.94,7.33,6.78,7.83c1.28-.61,15.66-6.44,26.61-16.39,1.39,2.39,7.33,16.45,20.89,6.72,0,0,10.05,3.95,18.22-.22,1.39-1.33,16.89-11.72,24-11.16a65.87,65.87,0,0,0-4.78-5.5s8.06-4.95,21.72-2.06c-.05-1.83-3.16-6.89-3.16-6.89s15.94,4.78,18.78,6.56c0,0-2.06-5.11-2.73-5.17s21.28,3.67,28.56,18.78c0,0,4.78-4.28,8.69.14,2.92,1.66,37.92,5.75,53.25,2.58s-2.33,30-2.33,30-35.17-5.5-38.33-.83S369,285,379.14,304.5c3.16,1.17,5.83,4.33,20.5,2.5.33,1.5-13.25,11.17-33.25,10.17,0,0,12.83,5.46,19.62,5.12-1.37,1-34.46,15.32-55.14-9.21,2.1-.75,21.54-13,21.54-20.41-2.27-.17-78.11-7.67-92.94,26.5-2-1-15.91-15.78-25.91,1.72l-3.81-11.31a5.66,5.66,0,0,0-1.22-2.06c-.67-.73-1.45-1.48-2.09-2.19l-7.33-7.25s-8.86,15-10.2,20c-1.88-3.33-4.92-8.78-11.2-9.31a9.93,9.93,0,0,1-4.21-2.23,15.43,15.43,0,0,0-1.42-1s-8.3-.56-19.5-.56c-1.39-.44-3.72-2.44-13.94.44-.73-.38-2.84-4-2.84-4s-7.31-6.93-9.52-9.63c-4.72-7.37-20.17-18.92-26.64-33.14a17.64,17.64,0,0,0-1.91-3.87C112.81,247.43,97,219.82,97.46,216.13Z" transform="translate(-3.31 -5.39)"/><path class="cls-2" d="M126.89,242.22s69.67,17.78,117.33-8.89c1.78,3.89,16.78,14.39,27,7.5,4.59,3.16,7.11,5.48,13.94,5.06,0,0,35.78-1.89,45.67,3.55s22,29.93,20.91,36l-2.69-.26c-86.72-7.06-96.93,11.51-97.83,12.91-2.5-1.41-4-8.5-4.59-10.33-4.91.08-13.66,8.92-13.66,8.92l-11.81-12.89a29,29,0,0,0-13.89,14.3L204.67,296c-34.23-22-48.45-17.56-49.34-18.67-11.11-5.55-28.44-35.11-28.44-35.11L97.46,216.13" transform="translate(-3.31 -5.39)"/><path class="cls-1" d="M531,349.71c-131.32-.15-395-.62-526.21-1.21C4.38,348.27,3.58,7.66,3.31,7.33V5.39H5.26c.33-.12,524.14,1.53,524.49,1.44,0,101.3,1.68,243,1.22,342.88Zm-3.43-3.42c.38-97.85.38-239.62,1.22-339C532.23,8.42,4.32,9,5.26,9.27L7.2,7.33c0-.2-.85,342.84-1.94,340.17,130.18-.61,392.14-1.08,522.28-1.21Z" transform="translate(-3.31 -5.39)"/><text class="cls-3" transform="translate(165.12 62.07)"><tspan class="cls-4">G</tspan><tspan class="cls-5" x="22.34" y="0">A</tspan><tspan class="cls-6" x="46.12" y="0">M</tspan><tspan x="75.27" y="0">E OVER</tspan></text><text class="cls-7" transform="translate(135.99 123.79)">Tu as laissé les Dieux décider de la fin.<tspan x="0" y="19.09">Un spartiate ne recule devant rien</tspan></text><path class="cls-8" d="M310.47,210.56" transform="translate(-3.31 -5.39)"/><path class="cls-9" d="M310.47,210.56" transform="translate(-3.31 -5.39)"/></svg>